<svg width="114" height="17" viewBox="0 0 114 17" fill="none" xmlns="http://www.w3.org/2000/svg">
<path fill-rule="evenodd" clip-rule="evenodd" d="M10.664 2.90782V0.570197H0V2.90782H4.16706V16.4774H6.50176V2.90782H10.664ZM27.0548 11.8782C26.2202 13.8069 24.695 15.3597 22.7742 16.2362C20.8534 17.1127 18.6735 17.2505 16.6563 16.6231C14.6391 15.9957 12.9278 14.6475 11.8537 12.8395C10.7795 11.0314 10.4187 8.89202 10.8411 6.83507C11.2635 4.77812 12.4391 2.94985 14.1404 1.70394C15.8417 0.458025 17.9478 -0.116973 20.0514 0.0901762C22.1549 0.297325 24.1063 1.2719 25.5281 2.82536C26.95 4.37883 27.7411 6.40077 27.7485 8.50005C27.7485 8.77562 27.7246 9.04644 27.7054 9.29826H13.1136C13.277 10.6362 13.8906 11.8801 14.855 12.8284C15.425 13.3976 16.1026 13.8493 16.8489 14.1575C17.5953 14.4657 18.3956 14.6243 19.2039 14.6243C20.0122 14.6243 20.8125 14.4657 21.5588 14.1575C22.3051 13.8493 22.9828 13.3976 23.5527 12.8284C23.8977 12.4752 24.204 12.0866 24.4665 11.6691L27.0548 11.8734V11.8782ZM19.2039 2.37568C18.3946 2.37456 17.5931 2.53366 16.8464 2.84366C16.0997 3.15366 15.4227 3.60835 14.855 4.18115C14.0847 4.95025 13.5319 5.90725 13.2523 6.95589H25.1554C24.8711 5.9092 24.319 4.95333 23.5527 4.18115C22.9847 3.60877 22.3076 3.15436 21.561 2.84439C20.8144 2.53443 20.0131 2.37509 19.2039 2.37568ZM31.6429 9.15097H41.0391V16.4679H43.3977V0.570197H41.0391V6.8181H31.6333V0.570197H29.2747V16.4774H31.6333V9.16047L31.6429 9.15097ZM51.0907 16.4679H57.4777V0.570197H55.0186L55.0425 14.3488H53.3058L51.727 0.570197H45.3401V16.4774H47.8422V2.69876H49.555L51.062 16.4774L51.0907 16.4679ZM63.6971 2.90782H65.7783V0.570197H59.3244V2.90782H61.4294V14.2538H59.3244V16.4774H65.7974V14.2538H63.7163V2.90782H63.6971ZM82.7384 0.361142L70.1989 6.02464V0.570197H67.8403V16.4774H70.1989V11.004L82.7384 16.6294V13.9545L70.6534 8.50005L82.7384 3.02185V0.361142ZM92.9479 0.570197V14.1398H87.1111V0.570197H84.7764V16.4774H95.3017V0.570197H92.9479ZM102.746 16.4774H108.214L109.865 2.69876H111.214L111.166 16.4774H113.688V0.570197H107.645L106.157 14.2966H104.832L103.363 0.570197H97.3446V16.4774H99.7702V2.66075H101.143L102.746 16.4774Z" fill="#231F20"/>
</svg>
