<svg width="34" height="35" viewBox="0 0 34 35" fill="none" xmlns="http://www.w3.org/2000/svg">
<path d="M33.4685 13.9997C33.195 13.7263 32.8242 13.5727 32.4375 13.5727C32.0508 13.5727 31.6799 13.7263 31.4064 13.9997L15.5223 29.9524C14.8452 30.6296 14.0413 31.1668 13.1566 31.5333C12.2719 31.8998 11.3237 32.0885 10.3661 32.0886C8.43212 32.0887 6.57729 31.3206 5.20965 29.9531C3.84202 28.5857 3.07362 26.731 3.07348 24.797C3.07334 22.863 3.84149 21.0082 5.20893 19.6405L20.5929 4.19387C21.4155 3.38434 22.5247 2.93266 23.6788 2.93722C24.833 2.94178 25.9386 3.40222 26.7548 4.21823C27.571 5.03424 28.0317 6.13972 28.0365 7.29386C28.0413 8.448 27.5899 9.5573 26.7806 10.3801L11.3966 25.8268C11.1192 26.0926 10.7498 26.241 10.3656 26.241C9.98137 26.241 9.612 26.0926 9.33455 25.8268C9.06115 25.5533 8.90757 25.1824 8.90757 24.7957C8.90757 24.409 9.06115 24.0382 9.33455 23.7647L23.0312 10.0053C23.2969 9.73028 23.4439 9.3619 23.4405 8.97953C23.4372 8.59716 23.2838 8.23139 23.0135 7.96101C22.7431 7.69062 22.3773 7.53725 21.9949 7.53393C21.6126 7.5306 21.2442 7.6776 20.9691 7.94324L7.27247 21.7026C6.86613 22.1089 6.54381 22.5912 6.32389 23.1221C6.10398 23.6529 5.9908 24.2219 5.9908 24.7965C5.9908 25.3711 6.10398 25.94 6.32389 26.4709C6.54381 27.0017 6.86613 27.4841 7.27247 27.8903C8.10608 28.6858 9.21406 29.1296 10.3663 29.1296C11.5186 29.1296 12.6266 28.6858 13.4602 27.8903L28.8427 12.4422C30.1814 11.0689 30.9252 9.22344 30.9129 7.30562C30.9006 5.38779 30.1333 3.55202 28.777 2.19598C27.4208 0.839945 25.5849 0.0728289 23.6671 0.0608123C21.7493 0.0487957 19.9039 0.792846 18.5308 2.13178L3.14684 17.5785C1.23231 19.493 0.156738 22.0896 0.156738 24.7972C0.156738 27.5048 1.23231 30.1014 3.14684 32.016C5.06137 33.9305 7.65803 35.0061 10.3656 35.0061C13.0731 35.0061 15.6698 33.9305 17.5843 32.016L33.4685 16.0676C33.6048 15.9321 33.7129 15.771 33.7867 15.5935C33.8604 15.4161 33.8984 15.2258 33.8984 15.0337C33.8984 14.8415 33.8604 14.6512 33.7867 14.4738C33.7129 14.2963 33.6048 14.1352 33.4685 13.9997Z" fill="#AEB4C2"/>
</svg>
